<svg xmlns="http://www.w3.org/2000/svg" xmlns:xlink="http://www.w3.org/1999/xlink" width="150" height="150" viewBox="0 0 150 150">
  <defs>
    <clipPath id="clip-Artboard_4">
      <rect width="150" height="150"/>
    </clipPath>
  </defs>
  <g id="Artboard_4" data-name="Artboard – 4" clip-path="url(#clip-Artboard_4)">
    <g id="Group_4133" data-name="Group 4133" transform="translate(151 157) rotate(180)">
      <g id="Path_13666" data-name="Path 13666" transform="translate(1 35)" fill="#fff">
        <path d="M 44 85.25 C 38.29304885864258 85.25 32.75791168212891 84.14544677734375 27.54834938049316 81.96702575683594 C 22.51689910888672 79.86309051513672 17.9981632232666 76.85107421875 14.11765003204346 73.01466369628906 C 10.23851203918457 69.17960357666016 7.193325042724609 64.71465301513672 5.066675186157227 59.74381256103516 C 2.865887403488159 54.59970092773438 1.75 49.13449859619141 1.75 43.5 C 1.75 37.86550140380859 2.865887403488159 32.40029907226563 5.066675186157227 27.25618743896484 C 7.193325042724609 22.28535079956055 10.23851203918457 17.82040023803711 14.11765003204346 13.98533725738525 C 17.9981632232666 10.14892482757568 22.51689910888672 7.13691234588623 27.54834938049316 5.032975196838379 C 32.75791168212891 2.854549884796143 38.29304885864258 1.75 44 1.75 C 49.70695114135742 1.75 55.24208831787109 2.854549884796143 60.4516487121582 5.032975196838379 C 65.48310089111328 7.13691234588623 70.00183868408203 10.14892482757568 73.88234710693359 13.98533725738525 C 77.76148986816406 17.82040023803711 80.80667877197266 22.28535079956055 82.93332672119141 27.25618743896484 C 85.13410949707031 32.40029907226563 86.25 37.86550140380859 86.25 43.5 C 86.25 49.13449859619141 85.13410949707031 54.59970092773438 82.93332672119141 59.74381256103516 C 80.80667877197266 64.71465301513672 77.76148986816406 69.17960357666016 73.88234710693359 73.01466369628906 C 70.00183868408203 76.85107421875 65.48310089111328 79.86309051513672 60.4516487121582 81.96702575683594 C 55.24208831787109 84.14544677734375 49.70695114135742 85.25 44 85.25 Z" stroke="none"/>
        <path d="M 44 3.5 C 38.52605819702148 3.5 33.21807098388672 4.558975219726563 28.22347259521484 6.647499084472656 C 23.40008544921875 8.664443969726563 19.06814575195313 11.55195617675781 15.34799957275391 15.22982788085938 C 11.630615234375 18.90496826171875 8.712799072265625 23.18281555175781 6.675613403320313 27.94452667236328 C 4.568428039550781 32.86985778808594 3.5 38.10346984863281 3.5 43.5 C 3.5 48.89653015136719 4.568428039550781 54.13014221191406 6.675613403320313 59.05547332763672 C 8.712799072265625 63.81718444824219 11.630615234375 68.09503173828125 15.34799957275391 71.77017211914063 C 19.06814575195313 75.44804382324219 23.40008544921875 78.33555603027344 28.22347259521484 80.35250091552734 C 33.21807098388672 82.44102478027344 38.52605819702148 83.5 44 83.5 C 49.47394180297852 83.5 54.78192901611328 82.44102478027344 59.77652740478516 80.35250091552734 C 64.59991455078125 78.33555603027344 68.93185424804688 75.44804382324219 72.65200042724609 71.77017211914063 C 76.369384765625 68.09503173828125 79.28720092773438 63.81718444824219 81.32438659667969 59.05547332763672 C 83.43157196044922 54.13014221191406 84.5 48.89653015136719 84.5 43.5 C 84.5 38.10346984863281 83.43157196044922 32.86985778808594 81.32438659667969 27.94452667236328 C 79.28720092773438 23.18281555175781 76.369384765625 18.90496826171875 72.65200042724609 15.22982788085938 C 68.93185424804688 11.55195617675781 64.59991455078125 8.664443969726563 59.77652740478516 6.647499084472656 C 54.78192901611328 4.558975219726563 49.47394180297852 3.5 44 3.5 M 44 0 C 68.30052947998047 0 88 19.47561645507813 88 43.5 C 88 67.52438354492188 68.30052947998047 87 44 87 C 19.69947052001953 87 0 67.52438354492188 0 43.5 C 0 19.47561645507813 19.69947052001953 0 44 0 Z" stroke="none" fill="#707070"/>
      </g>
      <g id="Path_13667" data-name="Path 13667" transform="translate(63 35)" fill="#fff">
        <path d="M 43.5 85.25 C 37.86301422119141 85.25 32.39557647705078 84.14637756347656 27.24954986572266 81.96980285644531 C 22.27820014953613 79.86708831787109 17.81310081481934 76.85652160644531 13.97828769683838 73.02171325683594 C 10.14347457885742 69.18689727783203 7.132912635803223 64.7218017578125 5.030200004577637 59.75045013427734 C 2.853625059127808 54.60442352294922 1.75 49.13698577880859 1.75 43.5 C 1.75 37.86301422119141 2.853625059127808 32.39557647705078 5.030200004577637 27.24954986572266 C 7.132912635803223 22.27820014953613 10.14347457885742 17.81310081481934 13.97828769683838 13.97828769683838 C 17.81310081481934 10.14347457885742 22.27820014953613 7.132912635803223 27.24954986572266 5.030200004577637 C 32.39557647705078 2.853625059127808 37.86301422119141 1.75 43.5 1.75 C 49.13698577880859 1.75 54.60442352294922 2.853625059127808 59.75045013427734 5.030200004577637 C 64.7218017578125 7.132912635803223 69.18689727783203 10.14347457885742 73.02171325683594 13.97828769683838 C 76.85652160644531 17.81310081481934 79.86708831787109 22.27820014953613 81.96980285644531 27.24954986572266 C 84.14637756347656 32.39557647705078 85.25 37.86301422119141 85.25 43.5 C 85.25 49.13698577880859 84.14637756347656 54.60442352294922 81.96980285644531 59.75045013427734 C 79.86708831787109 64.7218017578125 76.85652160644531 69.18689727783203 73.02171325683594 73.02171325683594 C 69.18689727783203 76.85652160644531 64.7218017578125 79.86708831787109 59.75045013427734 81.96980285644531 C 54.60442352294922 84.14637756347656 49.13698577880859 85.25 43.5 85.25 Z" stroke="none"/>
        <path d="M 43.5 3.5 C 38.09848403930664 3.5 32.86041259765625 4.557113647460938 27.93127059936523 6.641960144042969 C 23.16851425170898 8.656440734863281 18.89038848876953 11.54106903076172 15.21572875976563 15.21572875976563 C 11.54106903076172 18.89038848876953 8.656440734863281 23.16851425170898 6.641960144042969 27.93127059936523 C 4.557113647460938 32.86041259765625 3.5 38.09848403930664 3.5 43.5 C 3.5 48.90151596069336 4.557113647460938 54.13958740234375 6.641960144042969 59.06872940063477 C 8.656440734863281 63.83148574829102 11.54106903076172 68.10961151123047 15.21572875976563 71.78427124023438 C 18.89038848876953 75.45893096923828 23.16851425170898 78.34355926513672 27.93127059936523 80.35803985595703 C 32.86041259765625 82.44288635253906 38.09848403930664 83.5 43.5 83.5 C 48.90151596069336 83.5 54.13958740234375 82.44288635253906 59.06872940063477 80.35803985595703 C 63.83148574829102 78.34355926513672 68.10961151123047 75.45893096923828 71.78427124023438 71.78427124023438 C 75.45893096923828 68.10961151123047 78.34355926513672 63.83148574829102 80.35803985595703 59.06872940063477 C 82.44288635253906 54.13958740234375 83.5 48.90151596069336 83.5 43.5 C 83.5 38.09848403930664 82.44288635253906 32.86041259765625 80.35803985595703 27.93127059936523 C 78.34355926513672 23.16851425170898 75.45893096923828 18.89038848876953 71.78427124023438 15.21572875976563 C 68.10961151123047 11.54106903076172 63.83148574829102 8.656440734863281 59.06872940063477 6.641960144042969 C 54.13958740234375 4.557113647460938 48.90151596069336 3.5 43.5 3.5 M 43.5 0 C 67.52438354492188 0 87 19.47561645507813 87 43.5 C 87 67.52438354492188 67.52438354492188 87 43.5 87 C 19.47561645507813 87 0 67.52438354492188 0 43.5 C 0 19.47561645507813 19.47561645507813 0 43.5 0 Z" stroke="none" fill="#707070"/>
      </g>
      <g id="Intersection_5" data-name="Intersection 5" transform="translate(62.842 47.716)" fill="#57c1ff">
        <path d="M 12.86243057250977 59.37623977661133 C 9.575337409973145 55.82050704956055 6.955482482910156 51.76873397827148 5.06302547454834 47.30963897705078 C 2.864665269851685 42.12977981567383 1.75000524520874 36.62525939941406 1.75000524520874 30.9489803314209 C 1.75000524520874 25.27254867553711 2.864665269851685 19.76789855957031 5.06302547454834 14.58794975280762 C 6.955491542816162 10.12878322601318 9.575335502624512 6.076968193054199 12.86242771148682 2.521195888519287 C 16.14949417114258 6.076982021331787 18.76931762695313 10.12879180908203 20.66176605224609 14.58794975280762 C 22.86013603210449 19.76791954040527 23.97479438781738 25.27256011962891 23.97479438781738 30.9489803314209 C 23.97479438781738 36.62524795532227 22.86013603210449 42.12976837158203 20.66177558898926 47.30965042114258 C 18.76931762695313 51.76873397827148 16.14949035644531 55.82049560546875 12.86243057250977 59.37623977661133 Z" stroke="none"/>
        <path d="M 12.86241245269775 56.72963714599609 C 15.41635990142822 53.68625259399414 17.4914722442627 50.30023574829102 19.05084991455078 46.6259651184082 C 21.15692901611328 41.66353225708008 22.22479438781738 36.38903045654297 22.22479438781738 30.94898796081543 C 22.22479438781738 25.50877571105957 21.15691757202148 20.23415374755859 19.05084037780762 15.27162075042725 C 17.4914608001709 11.59728908538818 15.41636180877686 8.211240768432617 12.86241436004639 5.1678147315979 C 10.30845069885254 8.211230278015137 8.233329772949219 11.59728908538818 6.673950672149658 15.27162075042725 C 4.567873001098633 20.2341423034668 3.499995231628418 25.50876426696777 3.499995231628418 30.94898796081543 C 3.499995231628418 36.38904190063477 4.567862033843994 41.66354370117188 6.67393970489502 46.6259651184082 C 8.23332691192627 50.30023574829102 10.30845165252686 53.68626022338867 12.86241245269775 56.72963714599609 M 12.86242866516113 61.89741897583008 C 4.918117523193359 53.99009704589844 -4.713439921033569e-06 43.04330825805664 -4.713439921033569e-06 30.94898796081543 C -4.713439921033569e-06 18.85434341430664 4.918117523193359 7.907398223876953 12.86242866516113 -1.623196112632286e-06 C 20.80665016174316 7.907398223876953 25.72479438781738 18.85434341430664 25.72479438781738 30.94898796081543 C 25.72479438781738 43.04330825805664 20.80665016174316 53.99009704589844 12.86242866516113 61.89741897583008 Z" stroke="none" fill="#707070"/>
      </g>
    </g>
  </g>
</svg>
