<svg xmlns="http://www.w3.org/2000/svg" xmlns:xlink="http://www.w3.org/1999/xlink" width="150" height="150" viewBox="0 0 150 150">
  <defs>
    <clipPath id="clip-Artboard_1">
      <rect width="150" height="150"/>
    </clipPath>
  </defs>
  <g id="Artboard_1" data-name="Artboard – 1" clip-path="url(#clip-Artboard_1)">
    <g id="Group_4133" data-name="Group 4133">
      <g id="Path_13666" data-name="Path 13666" transform="translate(1 35)" fill="#57c1ff">
        <path d="M 44 85.25 C 38.29304885864258 85.25 32.75791168212891 84.14544677734375 27.54834938049316 81.96702575683594 C 22.51689910888672 79.86309051513672 17.9981632232666 76.85107421875 14.11765003204346 73.01466369628906 C 10.23851203918457 69.17960357666016 7.193325042724609 64.71465301513672 5.066675186157227 59.74381256103516 C 2.865887403488159 54.59970092773438 1.75 49.13449859619141 1.75 43.5 C 1.75 37.86550140380859 2.865887403488159 32.40029907226563 5.066675186157227 27.25618743896484 C 7.193325042724609 22.28535079956055 10.23851203918457 17.82040023803711 14.11765003204346 13.98533725738525 C 17.9981632232666 10.14892482757568 22.51689910888672 7.13691234588623 27.54834938049316 5.032975196838379 C 32.75791168212891 2.854549884796143 38.29304885864258 1.75 44 1.75 C 49.70695114135742 1.75 55.24208831787109 2.854549884796143 60.4516487121582 5.032975196838379 C 65.48310089111328 7.13691234588623 70.00183868408203 10.14892482757568 73.88234710693359 13.98533725738525 C 77.76148986816406 17.82040023803711 80.80667877197266 22.28535079956055 82.93332672119141 27.25618743896484 C 85.13410949707031 32.40029907226563 86.25 37.86550140380859 86.25 43.5 C 86.25 49.13449859619141 85.13410949707031 54.59970092773438 82.93332672119141 59.74381256103516 C 80.80667877197266 64.71465301513672 77.76148986816406 69.17960357666016 73.88234710693359 73.01466369628906 C 70.00183868408203 76.85107421875 65.48310089111328 79.86309051513672 60.4516487121582 81.96702575683594 C 55.24208831787109 84.14544677734375 49.70695114135742 85.25 44 85.25 Z" stroke="none"/>
        <path d="M 44 3.5 C 38.52605819702148 3.5 33.21807098388672 4.558975219726563 28.22347259521484 6.647499084472656 C 23.40008544921875 8.664443969726563 19.06814575195313 11.55195617675781 15.34799957275391 15.22982788085938 C 11.630615234375 18.90496826171875 8.712799072265625 23.18281555175781 6.675613403320313 27.94452667236328 C 4.568428039550781 32.86985778808594 3.5 38.10346984863281 3.5 43.5 C 3.5 48.89653015136719 4.568428039550781 54.13014221191406 6.675613403320313 59.05547332763672 C 8.712799072265625 63.81718444824219 11.630615234375 68.09503173828125 15.34799957275391 71.77017211914063 C 19.06814575195313 75.44804382324219 23.40008544921875 78.33555603027344 28.22347259521484 80.35250091552734 C 33.21807098388672 82.44102478027344 38.52605819702148 83.5 44 83.5 C 49.47394180297852 83.5 54.78192901611328 82.44102478027344 59.77652740478516 80.35250091552734 C 64.59991455078125 78.33555603027344 68.93185424804688 75.44804382324219 72.65200042724609 71.77017211914063 C 76.369384765625 68.09503173828125 79.28720092773438 63.81718444824219 81.32438659667969 59.05547332763672 C 83.43157196044922 54.13014221191406 84.5 48.89653015136719 84.5 43.5 C 84.5 38.10346984863281 83.43157196044922 32.86985778808594 81.32438659667969 27.94452667236328 C 79.28720092773438 23.18281555175781 76.369384765625 18.90496826171875 72.65200042724609 15.22982788085938 C 68.93185424804688 11.55195617675781 64.59991455078125 8.664443969726563 59.77652740478516 6.647499084472656 C 54.78192901611328 4.558975219726563 49.47394180297852 3.5 44 3.5 M 44 0 C 68.30052947998047 0 88 19.47561645507813 88 43.5 C 88 67.52438354492188 68.30052947998047 87 44 87 C 19.69947052001953 87 0 67.52438354492188 0 43.5 C 0 19.47561645507813 19.69947052001953 0 44 0 Z" stroke="none" fill="#707070"/>
      </g>
      <g id="Ellipse_488" data-name="Ellipse 488" transform="translate(63 35)" fill="#fff" stroke="#707070" stroke-width="3.5">
        <circle cx="43.5" cy="43.5" r="43.5" stroke="none"/>
        <circle cx="43.5" cy="43.5" r="41.75" fill="none"/>
      </g>
      <g id="Intersection_5" data-name="Intersection 5" transform="translate(62.842 47.716)" fill="#fff">
        <path d="M 12.86243057250977 59.37623977661133 C 9.575337409973145 55.82050704956055 6.955482482910156 51.76873397827148 5.06302547454834 47.30963897705078 C 2.864665269851685 42.12977981567383 1.75000524520874 36.62525939941406 1.75000524520874 30.9489803314209 C 1.75000524520874 25.27254867553711 2.864665269851685 19.76789855957031 5.06302547454834 14.58794975280762 C 6.955491542816162 10.12878322601318 9.575335502624512 6.076968193054199 12.86242771148682 2.521195888519287 C 16.14949417114258 6.076982021331787 18.76931762695313 10.12879180908203 20.66176605224609 14.58794975280762 C 22.86013603210449 19.76791954040527 23.97479438781738 25.27256011962891 23.97479438781738 30.9489803314209 C 23.97479438781738 36.62524795532227 22.86013603210449 42.12976837158203 20.66177558898926 47.30965042114258 C 18.76931762695313 51.76873397827148 16.14949035644531 55.82049560546875 12.86243057250977 59.37623977661133 Z" stroke="none"/>
        <path d="M 12.86241245269775 56.72963714599609 C 15.41635990142822 53.68625259399414 17.4914722442627 50.30023574829102 19.05084991455078 46.6259651184082 C 21.15692901611328 41.66353225708008 22.22479438781738 36.38903045654297 22.22479438781738 30.94898796081543 C 22.22479438781738 25.50877571105957 21.15691757202148 20.23415374755859 19.05084037780762 15.27162075042725 C 17.4914608001709 11.59728908538818 15.41636180877686 8.211240768432617 12.86241436004639 5.1678147315979 C 10.30845069885254 8.211230278015137 8.233329772949219 11.59728908538818 6.673950672149658 15.27162075042725 C 4.567873001098633 20.2341423034668 3.499995231628418 25.50876426696777 3.499995231628418 30.94898796081543 C 3.499995231628418 36.38904190063477 4.567862033843994 41.66354370117188 6.67393970489502 46.6259651184082 C 8.23332691192627 50.30023574829102 10.30845165252686 53.68626022338867 12.86241245269775 56.72963714599609 M 12.86242866516113 61.89741897583008 C 4.918117523193359 53.99009704589844 -4.713439921033569e-06 43.04330825805664 -4.713439921033569e-06 30.94898796081543 C -4.713439921033569e-06 18.85434341430664 4.918117523193359 7.907398223876953 12.86242866516113 -1.623196112632286e-06 C 20.80665016174316 7.907398223876953 25.72479438781738 18.85434341430664 25.72479438781738 30.94898796081543 C 25.72479438781738 43.04330825805664 20.80665016174316 53.99009704589844 12.86242866516113 61.89741897583008 Z" stroke="none" fill="#707070"/>
      </g>
    </g>
  </g>
</svg>
